<svg data-v-423bf9ae="" xmlns="http://www.w3.org/2000/svg" viewBox="0 0 314 90" class="iconLeft"><!----><!----><!----><g data-v-423bf9ae="" id="204f0be8-340c-4b2c-a7cc-a9bf210e0748" fill="#000000" transform="matrix(5.825242610575063,0,0,5.825242610575063,106.7961134304536,-1.7766979545908157)"><path d="M1.21 11.08L1.21 11.46Q1.33 11.94 1.75 12.19Q2.16 12.43 2.81 12.48L2.81 12.48Q3.20 12.48 3.58 12.34Q3.95 12.21 4.19 11.92L4.19 11.92Q4.68 11.36 4.68 10.33L4.68 10.33Q4.68 9.73 4.46 9.26Q4.24 8.79 3.83 8.46L3.83 8.46Q3.65 8.33 3.48 8.25Q3.32 8.18 3.19 8.18L3.19 8.18L2.39 8.18L2.39 7.50L3.17 7.50Q3.42 7.44 3.65 7.25Q3.89 7.06 4.05 6.75L4.05 6.75Q4.38 6.16 4.38 5.52L4.38 5.52Q4.38 4.74 4.01 4.18L4.01 4.18L4.01 4.18Q3.59 3.57 2.86 3.57L2.86 3.57Q2.00 3.57 1.45 4.77L1.45 4.77L0.75 4.77Q1.08 3.82 1.72 3.36L1.72 3.36Q2.03 3.12 2.40 3.00Q2.77 2.88 3.18 2.88L3.18 2.88Q4.42 2.88 5.17 3.58L5.17 3.58Q5.98 4.31 5.98 5.54L5.98 5.54Q5.98 6.32 5.57 6.98L5.57 6.98L5.57 6.97Q5.40 7.25 5.18 7.46Q4.96 7.68 4.72 7.82L4.72 7.82Q5.07 7.98 5.33 8.20Q5.58 8.42 5.80 8.73L5.80 8.73L5.79 8.73Q6.30 9.45 6.30 10.38L6.30 10.38Q6.30 11.65 5.37 12.43L5.37 12.43Q4.48 13.18 3.23 13.18L3.23 13.18Q3.06 13.18 2.83 13.14Q2.59 13.10 2.28 13.02L2.28 13.02Q1.71 12.88 1.40 12.88L1.40 12.88Q1.23 12.88 1.14 13.01L1.14 13.01L0.55 13.01L0.55 11.08L1.21 11.08ZM14.42 6.73L14.42 6.73Q14.26 6.73 14.08 6.81Q13.90 6.90 13.71 7.08L13.71 7.08Q13.34 7.43 13.32 7.81L13.32 7.81Q13.32 8.98 13.33 10.08Q13.33 11.18 13.33 12.35L13.33 12.35L14.02 12.35L14.02 13.01L11.05 13.01L11.05 12.35L11.74 12.35L11.74 8.67Q11.74 6.73 10.70 6.73L10.70 6.73Q10.42 6.73 10.03 7.05L10.03 7.05Q9.62 7.40 9.62 7.64L9.62 7.64L9.62 12.35L10.30 12.35L10.30 13.01L7.33 13.01L7.33 12.35L8.03 12.35L8.03 6.93L7.33 6.93L7.33 6.27L9.62 6.27L9.62 6.54Q9.89 6.33 10.22 6.22Q10.55 6.10 10.92 6.10L10.92 6.10Q11.57 6.10 12.09 6.32Q12.61 6.54 12.97 6.92L12.97 6.92Q13.54 6.10 14.66 6.10L14.66 6.10Q17.05 6.10 17.05 9.00L17.05 9.00L17.05 12.35L17.74 12.35L17.74 13.01L14.77 13.01L14.77 12.35L15.46 12.35L15.46 8.67Q15.46 6.73 14.42 6.73ZM20.38 9.67L20.38 9.67Q20.38 10.78 20.70 11.51L20.70 11.51Q21.11 12.50 21.98 12.50L21.98 12.50Q22.42 12.50 22.74 12.24Q23.06 11.99 23.27 11.52L23.27 11.52Q23.42 11.15 23.50 10.68Q23.58 10.22 23.58 9.69L23.58 9.69Q23.58 8.58 23.27 7.81L23.27 7.81Q22.85 6.77 21.99 6.77L21.99 6.77Q21.55 6.77 21.22 7.04Q20.90 7.31 20.69 7.78L20.69 7.78Q20.56 8.15 20.47 8.63Q20.38 9.12 20.38 9.67ZM25.17 9.64L25.17 9.64Q25.17 11.51 24.36 12.34L24.36 12.34Q23.57 13.15 21.72 13.15L21.72 13.15Q18.79 13.15 18.79 9.64L18.79 9.64Q18.79 6.11 22.15 6.11L22.15 6.11Q25.17 6.11 25.17 9.64ZM30.96 8.20L30.96 7.83Q30.66 7.28 30.30 7.01Q29.94 6.75 29.51 6.75L29.51 6.75Q28.55 6.75 28.09 7.73L28.09 7.73Q27.74 8.48 27.74 9.67L27.74 9.67Q27.74 10.14 27.84 10.60Q27.93 11.05 28.11 11.45L28.11 11.45Q28.57 12.45 29.33 12.45L29.33 12.45Q30.61 12.45 31.20 10.99L31.20 10.99L31.74 11.34Q31.64 11.76 31.37 12.12Q31.10 12.48 30.72 12.71L30.72 12.71Q30.37 12.93 29.97 13.05Q29.57 13.17 29.16 13.17L29.16 13.17Q28.36 13.17 27.75 12.90Q27.15 12.63 26.78 12.15L26.78 12.15Q26.48 11.71 26.31 11.07Q26.15 10.42 26.15 9.59L26.15 9.59Q26.15 6.10 29.16 6.10L29.16 6.10Q29.43 6.10 30.00 6.26L30.00 6.26Q30.50 6.40 30.77 6.40L30.77 6.40Q30.93 6.40 31.03 6.27L31.03 6.27L31.62 6.27L31.62 8.20L30.96 8.20ZM32.49 13.01L32.49 12.35L33.18 12.35L33.18 3.70L32.49 3.70L32.49 3.04L34.77 3.04L34.77 12.35L35.46 12.35L35.46 13.01L32.49 13.01Z"></path></g><defs data-v-423bf9ae=""><linearGradient data-v-423bf9ae="" gradientTransform="rotate(25)" id="bebce6aa-6d76-44e8-8e85-0ca44d833186" x1="0%" y1="0%" x2="100%" y2="0%"><stop data-v-423bf9ae="" offset="0%" style="stop-color: rgb(103, 99, 93); stop-opacity: 1;"></stop><stop data-v-423bf9ae="" offset="100%" style="stop-color: rgb(255, 214, 173); stop-opacity: 1;"></stop></linearGradient></defs><g data-v-423bf9ae="" id="54d12882-453f-4f02-b7cc-729070b03ac0" transform="matrix(1.414227126232618,0,0,1.414227126232618,-22.935403997078396,-23.017835738770657)" stroke="none" fill="url(#bebce6aa-6d76-44e8-8e85-0ca44d833186)"><path d="M23.814 16.942l-7.07 7.07 24.747 24.75-24.748 24.749 7.07 7.07 24.749-24.748 24.75 24.748 7.07-7.07-24.75-24.748 24.75-24.75-7.07-7.07-24.75 24.75-24.748-24.75z"></path></g><!----></svg>